<svg width="64" height="64" xmlns="http://www.w3.org/2000/svg">

 <g>
  <title>background</title>
  <rect fill="none" id="canvas_background" height="402" width="582" y="-1" x="-1"/>
 </g>
 <g>
  <title>Layer 1</title>
  <circle id="svg_2" r="32" fill="#4F5D73" cy="32" cx="32"/>
  <path opacity="0.2" id="svg_4" fill="#231F20" d="m32.096,39.682c-1.556,1.556 -6.087,12.54 -6.087,12.54c-0.665,1.208 0.33,2.085 2.593,0.936l8.131,-4.435c4.381,-2.435 5.228,-3.071 5.17,-8.028l-0.815,-5.853c-0.279,-2.005 -1.78,-2.373 -3.336,-0.817l-5.656,5.657z"/>
  <path opacity="0.2" id="svg_6" fill="#231F20" d="m27.072,34.658c-1.556,1.556 -12.54,6.087 -12.54,6.087c-1.208,0.665 -2.085,-0.33 -0.936,-2.593l4.435,-8.131c2.435,-4.381 3.071,-5.228 8.028,-5.17l5.853,0.815c2.005,0.279 2.373,1.78 0.817,3.336l-5.657,5.656z"/>
  <path id="svg_8" fill="#C75C5C" d="m32.096,37.682c-1.556,1.556 -6.087,12.54 -6.087,12.54c-0.665,1.208 0.33,2.085 2.593,0.936l8.131,-4.435c4.381,-2.435 5.228,-3.071 5.17,-8.028l-0.815,-5.853c-0.279,-2.005 -1.78,-2.373 -3.336,-0.817l-5.656,5.657z"/>
  <path id="svg_10" fill="#C75C5C" d="m27.072,32.658c-1.556,1.556 -12.54,6.087 -12.54,6.087c-1.208,0.665 -2.085,-0.33 -0.936,-2.593l4.435,-8.131c2.435,-4.381 3.071,-5.228 8.028,-5.17l5.853,0.815c2.005,0.279 2.373,1.78 0.817,3.336l-5.657,5.656z"/>
  <path opacity="0.2" id="svg_12" fill="#231F20" d="m21.247,39.545c5.074,-5.074 9.337,-3.526 9.337,-3.526s1.549,4.263 -3.526,9.337s-13.291,8.76 -13.931,8.12c-0.62,-0.621 3.045,-8.857 8.12,-13.931z"/>
  <path id="svg_14" fill="#E0995E" d="m21.247,37.545c5.074,-5.074 9.337,-3.526 9.337,-3.526s1.549,4.263 -3.526,9.337s-13.291,8.76 -13.931,8.12c-0.62,-0.621 3.045,-8.857 8.12,-13.931z"/>
  <path id="svg_16" fill="#F5CF87" d="m25.489,33.302c5.074,-5.074 9.337,-3.526 9.337,-3.526s1.549,4.263 -3.526,9.337s-13.291,8.76 -13.931,8.12c-0.62,-0.62 3.046,-8.857 8.12,-13.931z"/>
  <path opacity="0.2" id="svg_18" fill="#231F20" d="m43.634,37.078c-7.81,7.81 -19.783,5.673 -19.783,5.673s-2.137,-11.972 5.673,-19.783s19.643,-8.641 21.197,-7.087c1.507,1.507 0.724,13.387 -7.087,21.197z"/>
  <path id="svg_20" fill="#E0E0D1" d="m43.634,35.078c-7.81,7.81 -19.783,5.673 -19.783,5.673s-2.137,-11.972 5.673,-19.783s19.643,-8.641 21.197,-7.087c1.507,1.507 0.724,13.387 -7.087,21.197z"/>
  <path opacity="0.2" id="svg_22" fill="#231F20" d="m21.023,46.994c-0.781,0.781 -1.34,1.488 -2.121,0.707l0,0c-0.781,-0.781 -0.074,-1.34 0.707,-2.121l9.899,-12.728c0.781,-0.781 4.169,-1.488 4.95,-0.707l0,0c0.781,0.781 0.074,4.169 -0.707,4.95l-12.728,9.899z"/>
  <path id="svg_24" fill="#C75C5C" d="m21.023,44.994c-0.781,0.781 -1.34,1.488 -2.121,0.707l0,0c-0.781,-0.781 -0.074,-1.34 0.707,-2.121l9.899,-12.728c0.781,-0.781 4.169,-1.488 4.95,-0.707l0,0c0.781,0.781 0.074,4.169 -0.707,4.95l-12.728,9.899z"/>
  <ellipse opacity="0.2" id="svg_26" transform="matrix(0.7071,-0.7071,0.7071,0.7071,-7.598,35.9566) " ry="4" rx="4" fill="#231F20" cy="27.15" cx="39.604"/>
  <ellipse opacity="0.2" id="svg_28" transform="matrix(0.7071,-0.7071,0.7071,0.7071,-1.9411,38.2997) " ry="2" rx="2" fill="#231F20" cy="21.493" cx="45.261"/>
  <ellipse id="svg_30" transform="matrix(0.7071,-0.7071,0.7071,0.7071,-6.1838,35.3708) " ry="4" rx="4" fill="#4F5D73" cy="25.15" cx="39.604"/>
  <ellipse id="svg_32" transform="matrix(0.7071,-0.7071,0.7071,0.7071,-0.5269,37.7139) " ry="2" rx="2" fill="#4F5D73" cy="19.493" cx="45.261"/>
 </g>
</svg>